Coordinates
version=1
nRows=7
nColumns=40
inDegrees=yes

Units are S.I. units (second, meters, Newtons, ...)
Angles are in degrees.

endheader
time	pelvis_tilt	pelvis_list	pelvis_rotation	pelvis_tx	pelvis_ty	pelvis_tz	hip_flexion_r	hip_adduction_r	hip_rotation_r	knee_angle_r	knee_angle_r_beta	ankle_angle_r	subtalar_angle_r	mtp_angle_r	hip_flexion_l	hip_adduction_l	hip_rotation_l	knee_angle_l	knee_angle_l_beta	ankle_angle_l	subtalar_angle_l	mtp_angle_l	lumbar_extension	lumbar_bending	lumbar_rotation	arm_flex_r	arm_add_r	arm_rot_r	elbow_flex_r	pro_sup_r	wrist_flex_r	wrist_dev_r	arm_flex_l	arm_add_l	arm_rot_l	elbow_flex_l	pro_sup_l	wrist_flex_l	wrist_dev_l
     42.82250000	     -4.72703353	     -3.71391802	     -7.43358343	      0.98375185	      0.92277444	      0.45119730	     21.82695631	      1.66835760	     -6.54896563	     20.40813229	     20.40813229	      5.58152775	      0.23563720	     -5.97200426	     -1.62903529	     -6.29916585	    -12.14984742	     21.05207491	     21.05207491	     20.17713613	     -8.81590416	      0.89002348	     -9.23498311	      8.61176019	      1.08415438	    -10.78290565	    -14.07207274	    -19.01054308	     24.81685919	     46.56317108	      0.00000000	      0.00000000	     37.85404221	    -23.64798302	     -7.62260205	     69.94680690	     48.15002395	      0.00000000	      0.00000000
     42.84228571	     -4.56483017	     -3.85269167	     -6.92794000	      0.98623354	      0.92386677	      0.45597610	     20.94704803	      1.98404728	     -6.84215396	     20.32005623	     20.32005623	      6.13608198	      0.04465492	     -5.93822912	     -1.07804549	     -7.10490876	    -11.61226891	     23.33636078	     23.33636078	     19.36043452	     -9.46206775	      0.03460476	     -9.18977610	      8.61792590	      1.16851739	    -10.16524425	    -14.22426256	    -18.96800536	     24.87038348	     46.56720768	      0.00000000	      0.00000000	     36.98210190	    -23.11764054	     -7.50728237	     69.82745285	     48.12811734	      0.00000000	      0.00000000
     42.86207143	     -4.14428063	     -3.93226941	     -6.45097715	      0.98872883	      0.92519293	      0.46083796	     19.82298330	      2.23785796	     -7.04445080	     20.28329338	     20.28329338	      6.68908013	     -0.13970946	     -5.97974980	     -0.55632733	     -7.86874378	    -11.07935302	     26.05139251	     26.05139251	     18.41019000	    -10.16411763	     -0.70601802	     -9.45032568	      8.48791338	      1.36601331	     -9.43225236	    -14.29429250	    -18.92203322	     25.05213689	     46.56385381	      0.00000000	      0.00000000	     36.10446629	    -22.53243050	     -7.33624970	     69.64163905	     48.10420346	      0.00000000	      0.00000000
     42.88185714	     -4.08682216	     -4.22297568	     -5.84796152	      0.99066977	      0.92573493	      0.46575026	     19.06866465	      2.76302889	     -7.45007812	     20.14674536	     20.14674536	      7.09480395	     -0.56917503	     -5.88679127	      0.97395095	     -9.05134650	    -10.27241288	     29.76053485	     29.76053485	     16.94512275	    -11.20749647	     -2.24612421	     -9.34252715	      8.57158767	      1.38824979	     -8.66316928	    -14.36780033	    -18.85226958	     25.20432148	     46.56081842	      0.00000000	      0.00000000	     35.01738470	    -21.90413767	     -7.18335640	     69.45411185	     48.07878335	      0.00000000	      0.00000000
     42.90164286	     -3.90593559	     -4.42661932	     -5.30778912	      0.99255679	      0.92614552	      0.47075854	     18.31572969	      3.28155036	     -7.38375483	     20.23048987	     20.23048987	      7.73040398	     -1.52533934	     -5.12261443	      2.17876535	    -10.09747148	     -9.56395144	     32.67471082	     32.67471082	     11.45539372	    -14.35786340	    -12.31935816	     -9.30795660	      8.50136011	      0.86764764	     -7.05982303	    -14.44430712	    -18.10055379	     24.62584989	     46.56020969	      0.00000000	      0.00000000	     32.92892773	    -21.56541883	     -7.92769878	     70.03372115	     48.09012893	      0.00000000	      0.00000000
     42.92142857	     -3.50957311	     -4.64077847	     -4.72969408	      0.99426037	      0.92663210	      0.47559097	     17.36385391	      3.68866260	     -7.78364815	     20.34911200	     20.34911200	      8.21566280	     -1.80569008	     -5.21777782	      3.85963476	    -11.15820045	     -8.59082397	     37.08965010	     37.08965010	      9.64470083	    -15.47064751	    -12.82004697	     -9.60464856	      8.39711877	      1.07046796	     -6.04390357	    -14.38384141	    -18.00829592	     24.98667090	     46.54731430	      0.00000000	      0.00000000	     31.76220904	    -20.73212997	     -7.60902362	     69.56397406	     48.04822473	      0.00000000	      0.00000000
     42.94121429	     -3.27793062	     -4.85904319	     -4.10262629	      0.99560674	      0.92658902	      0.48030944	     16.68563068	      4.13479469	     -8.12520967	     20.57111086	     20.57111086	      8.67952781	     -2.34839133	     -5.24140769	      6.02306940	    -12.19674747	     -7.41968355	     41.77484587	     41.77484587	      7.44305191	    -16.67493400	    -13.23217225	     -9.67554966	      8.31326040	      1.16131111	     -4.94034561	    -14.30842573	    -17.90295631	     25.40720458	     46.53133314	      0.00000000	      0.00000000	     30.26503877	    -19.86976795	     -7.28250425	     68.89568919	     47.99980527	      0.00000000	      0.00000000
